<svg width="375" height="286" viewBox="0 0 375 286" fill="none" xmlns="http://www.w3.org/2000/svg">
<mask id="mask0_5_92" style="mask-type:luminance" maskUnits="userSpaceOnUse" x="5" y="8" width="365" height="270">
<path d="M346.282 85.8023C322.142 56.0021 292.551 35.402 257.51 24.002C222.468 12.6019 185.172 7.45074 145.621 8.54846C106.069 9.64622 72.8415 23.8345 45.9375 51.1135C19.0336 78.3924 5.47754 110.065 5.26927 146.132C5.06099 182.199 23.9274 206.724 61.8684 219.706C99.8094 232.688 135.8 247.612 169.839 264.477C203.878 281.342 240.775 281.478 280.53 264.887C320.285 248.295 347.218 221.749 361.328 185.251C375.438 148.752 370.423 115.602 346.282 85.8023Z" fill="white"/>
</mask>
<g mask="url(#mask0_5_92)">
<path d="M346.282 85.8023C322.142 56.0021 292.551 35.402 257.51 24.002C222.468 12.6019 185.172 7.45074 145.621 8.54846C106.069 9.64622 72.8415 23.8345 45.9375 51.1135C19.0336 78.3924 5.47754 110.065 5.26927 146.132C5.06099 182.199 23.9274 206.724 61.8684 219.706C99.8094 232.688 135.8 247.612 169.839 264.477C203.878 281.342 240.775 281.478 280.53 264.887C320.285 248.295 347.218 221.749 361.328 185.251C375.438 148.752 370.423 115.602 346.282 85.8023Z" fill="#CCF3F3"/>
</g>
<g clip-path="url(#clip0_5_92)">
<path d="M137.383 227C127.727 227 118.086 226.789 108.459 226.366C94.7032 225.763 80.4792 225.139 67.2585 216.18C58.01 209.913 49.8191 199.858 43.5714 187.102C39.3956 178.457 36.3336 169.077 34.4932 159.293C31.0601 141.48 31.177 122.92 34.8342 105.174C36.1158 99.0891 37.8826 93.1728 40.1092 87.5096C49.7505 63.1153 67.3356 46.7401 88.3555 42.583C88.5291 42.5555 88.7047 42.5509 88.8791 42.5694C88.9736 42.5756 89.0678 42.5822 89.1639 42.5773L89.2876 42.5292C89.6046 42.3946 89.9303 42.2925 90.2612 42.2239C122.68 36.3272 156.95 48.2584 189.366 76.7269C214.43 98.7416 247.647 110.596 290.915 112.968L291.53 113.007C303.574 113.853 315.225 119.92 325.224 130.554C335.093 141.05 342.503 155.054 346.653 171.052C347.163 173.002 347.631 175.033 348.043 177.086C348.427 178.994 348.4 180.991 347.964 182.883C347.529 184.775 346.701 186.497 345.559 187.881V187.885L345.452 188.02C345.192 188.336 344.919 188.638 344.64 188.919L344.312 189.25C341.547 192.033 339.363 194.231 336.749 195.939C335.006 197.07 333.152 197.925 331.232 198.484C320.688 201.625 309.98 204.537 299.407 207.14C278.872 212.198 257.796 216.372 236.765 219.543C203.794 224.51 170.604 227.001 137.383 227ZM88.6333 43.4334C88.5687 43.4326 88.5041 43.438 88.4402 43.4494C67.6168 47.5676 50.1982 63.782 40.6524 87.9348C38.4478 93.5419 36.6985 99.3996 35.4296 105.424C31.8058 123.013 31.6903 141.408 35.0929 159.063C36.9153 168.753 39.9476 178.043 44.0831 186.606C50.2696 199.237 58.3768 209.191 67.5283 215.391C80.6303 224.27 94.7873 224.892 108.478 225.492C151.299 227.361 194.173 225.081 236.699 218.674C257.716 215.504 278.778 211.334 299.3 206.278C309.866 203.677 320.566 200.767 331.103 197.628C332.977 197.083 334.786 196.249 336.487 195.145C339.049 193.473 341.212 191.295 343.95 188.538L344.278 188.208C344.518 187.966 344.754 187.707 344.979 187.438L345.044 187.356C347.294 184.584 348.169 180.927 347.445 177.324V177.323C347.037 175.292 346.574 173.283 346.069 171.353C337.592 138.672 315.662 115.576 291.5 113.881L290.889 113.842C271.125 112.758 253.829 109.756 238.017 104.664C219.141 98.5858 202.662 89.4357 189.037 77.4686C156.745 49.1092 122.617 37.2223 90.3404 43.0911C90.0389 43.1547 89.7422 43.2487 89.4534 43.3721L89.2305 43.4483C89.1039 43.4552 88.977 43.4534 88.8505 43.4427C88.776 43.4381 88.7038 43.4334 88.6333 43.4334Z" fill="#F0F0F0"/>
<path d="M131.955 94.8591C131.061 93.8113 130.147 87.9678 129.006 87.3746C129.859 89.6781 129.239 90.288 129.235 92.8161C129.246 94.2517 129.108 95.6831 128.826 97.0768H109.494V78.6426C109.494 76.9862 109.761 75.3461 110.28 73.8158C110.799 72.2855 111.559 70.8951 112.518 69.7238C113.476 68.5526 114.614 67.6236 115.867 66.9897C117.119 66.3559 118.462 66.0297 119.817 66.0297C120.335 66.0421 120.849 66.134 121.347 66.3034C123.009 66.8516 124.523 67.924 125.739 69.413C126.954 70.9021 127.828 72.7555 128.272 74.7873C129.745 81.3691 132.089 92.325 131.955 94.8591Z" fill="#2F2E41"/>
<path d="M110.629 117.537L110.638 103.168L103.726 103.923L106.165 112.985L105.023 135.763C104.47 135.915 103.964 136.26 103.568 136.757C103.172 137.254 102.903 137.881 102.794 138.561C102.685 139.242 102.74 139.946 102.952 140.589C103.165 141.232 103.526 141.786 103.992 142.182C104.458 142.578 105.008 142.8 105.575 142.821C106.142 142.842 106.702 142.661 107.187 142.3C107.671 141.939 108.059 141.413 108.304 140.787C108.548 140.161 108.638 139.462 108.562 138.775L110.629 117.537Z" fill="#FFB6B6"/>
<path d="M124.233 220.213L127.025 220.213L128.354 207.052H124.232L124.233 220.213Z" fill="#FFB6B6"/>
<path d="M123.287 218.53L127.701 218.208V220.519L131.899 224.061C132.106 224.236 132.262 224.487 132.344 224.778C132.426 225.069 132.43 225.384 132.355 225.678C132.28 225.972 132.13 226.229 131.927 226.412C131.724 226.594 131.479 226.692 131.227 226.692H125.971L125.065 224.406L124.712 226.692H122.73L123.287 218.53Z" fill="#2F2E41"/>
<path d="M108.085 220.213L110.877 220.213L112.206 207.052H108.084L108.085 220.213Z" fill="#FFB6B6"/>
<path d="M107.139 218.53L111.554 218.208V220.519L115.751 224.061C115.958 224.236 116.114 224.487 116.196 224.778C116.279 225.069 116.282 225.384 116.207 225.678C116.132 225.972 115.983 226.229 115.78 226.412C115.577 226.594 115.331 226.692 115.079 226.692H109.824L108.918 224.406L108.564 226.692H106.582L107.139 218.53Z" fill="#2F2E41"/>
<path d="M121.746 87.6518L115.96 87.7904L111.876 93.0573L108.602 93.644C107.121 93.9094 105.76 94.7879 104.745 96.1326C103.731 97.4773 103.125 99.2067 103.028 101.032L103.595 104.839H106.999L108.967 118.962C108.202 121.346 108.15 123.227 109.721 123.966L114.599 135.193L129.006 127.292C129.736 125.758 129.97 124.216 129.224 122.717L130.253 101.096H133.716C133.716 97.0525 132.597 93.6435 129.308 93.1935C128.002 93.0208 126.689 92.9291 125.376 92.9187L121.746 87.6518Z" fill="#E6E6E6"/>
<path d="M129.006 127.292C129.006 127.292 114.939 130.341 109.721 123.966C109.721 123.966 109.191 125.065 108.393 126.887C108.163 127.411 107.72 127.766 107.452 128.401C107.209 128.978 106.583 129.687 106.318 130.342C106.105 130.868 106.447 131.556 106.225 132.125C103.553 138.973 100.43 148.634 101.1 155.013C101.531 159.127 102.423 168.699 103.362 178.98C103.435 179.783 102.841 180.815 102.915 181.625C102.984 182.388 103.722 182.929 103.791 183.694C103.837 184.202 103.322 184.721 103.369 185.228C103.419 185.785 104.031 186.331 104.081 186.886C105.367 201.081 106.545 214.335 106.545 214.335H113.124L114.366 184.065L113.351 173.031L115.733 150.716L119.023 171.922L119.446 183.857L122.923 214.889H129.006V184.848L129.459 183.288L129.006 181.286L129.459 179.13L129.006 176.781V127.292Z" fill="#2F2E41"/>
<path d="M123.521 83.5526C122.625 85.0072 121.35 86.0454 119.907 86.4964C118.463 86.9474 116.937 86.7843 115.579 86.0338C114.221 85.2833 113.113 83.9903 112.438 82.3677C111.762 80.7451 111.558 78.8897 111.861 77.107C112.163 75.3242 112.954 73.7205 114.102 72.56C115.25 71.3994 116.687 70.7512 118.177 70.722C119.667 70.6929 121.121 71.2846 122.299 72.3997C123.476 73.5148 124.308 75.0868 124.658 76.8567C124.676 76.9528 124.692 77.0483 124.708 77.1474C124.892 78.2568 124.882 79.4014 124.677 80.5056C124.473 81.6097 124.079 82.6483 123.521 83.5526Z" fill="#FFB6B6"/>
<path d="M122.154 78.9808C122.015 78.1277 121.663 77.3482 121.147 76.7493C121.198 77.5668 121.105 78.3881 120.874 79.1582C119.15 79.3448 117.417 78.9255 115.881 77.9496C114.724 76.9905 113.251 77.0736 111.536 77.9496C111.536 76.9303 111.7 75.9209 112.019 74.9791C112.339 74.0374 112.807 73.1817 113.397 72.4609C113.986 71.7401 114.687 71.1684 115.458 70.7784C116.228 70.3884 117.054 70.1877 117.889 70.1878H119.023C120.708 70.1882 122.323 71.0061 123.515 72.4616C124.706 73.9171 125.375 75.8911 125.376 77.9496C124.329 78.4084 123.251 78.7535 122.154 78.9808Z" fill="#2F2E41"/>
<path d="M72.5254 177.907C82.6046 177.907 90.7753 167.924 90.7753 155.609C90.7753 143.294 82.6046 133.311 72.5254 133.311C62.4462 133.311 54.2755 143.294 54.2755 155.609C54.2755 167.924 62.4462 177.907 72.5254 177.907Z" fill="#F0F0F0"/>
<path d="M188.824 75.5969C198.903 75.5969 207.074 65.6136 207.074 53.2985C207.074 40.9834 198.903 31 188.824 31C178.745 31 170.574 40.9834 170.574 53.2985C170.574 65.6136 178.745 75.5969 188.824 75.5969Z" fill="#F0F0F0"/>
<path d="M333.75 181.405C343.829 181.405 352 171.422 352 159.107C352 146.792 343.829 136.808 333.75 136.808C323.671 136.808 315.5 146.792 315.5 159.107C315.5 171.422 323.671 181.405 333.75 181.405Z" fill="#F0F0F0"/>
<path d="M221.746 55.7302V106.293C221.746 107.344 221.407 108.352 220.802 109.098C220.197 109.845 219.376 110.27 218.517 110.281C218.505 110.282 218.493 110.283 218.481 110.282H213.664C209.811 110.282 206.115 108.412 203.39 105.082C200.665 101.753 199.134 97.237 199.134 92.5283V55.7302C199.134 54.6722 199.478 53.6576 200.09 52.9096C200.702 52.1615 201.532 51.7412 202.398 51.7412H204.35C203.446 54.9638 215.717 56.3206 216.391 51.7412H218.481C219.347 51.7412 220.177 52.1615 220.789 52.9096C221.402 53.6576 221.746 54.6723 221.746 55.7302Z" fill="#36D2D2"/>
<path d="M207.452 47.9603C207.452 47.8217 207.498 47.6888 207.578 47.5908C207.658 47.4928 207.767 47.4377 207.88 47.4375H210.79C210.903 47.4379 211.011 47.4932 211.091 47.5911C211.171 47.6891 211.216 47.8219 211.216 47.9603C211.216 48.0987 211.171 48.2314 211.091 48.3294C211.011 48.4274 210.903 48.4826 210.79 48.483H207.88C207.767 48.4829 207.658 48.4278 207.578 48.3297C207.498 48.2317 207.452 48.0989 207.452 47.9603Z" fill="#3F3D56"/>
<path d="M219.48 116.696H201.082C199.654 116.694 198.286 116 197.276 114.767C196.267 113.534 195.699 111.862 195.697 110.118V74.7718C195.596 74.6831 195.514 74.5663 195.457 74.4311C195.401 74.2958 195.371 74.146 195.371 73.994V70.4392C195.371 70.2873 195.401 70.1375 195.457 70.0023C195.514 69.8671 195.596 69.7503 195.697 69.6617V68.7076C195.596 68.619 195.514 68.5023 195.457 68.3671C195.401 68.2318 195.371 68.0821 195.371 67.9301V64.3751C195.371 64.2232 195.401 64.0734 195.457 63.9381C195.514 63.8029 195.596 63.6862 195.697 63.5976V61.8732C195.573 61.7914 195.468 61.6696 195.396 61.521C195.323 61.3724 195.285 61.2025 195.286 61.0295V57.4747C195.285 57.3017 195.323 57.1318 195.396 56.9831C195.468 56.8345 195.573 56.7127 195.697 56.6308V51.9059C195.699 50.1617 196.267 48.4896 197.276 47.2564C198.286 46.0231 199.654 45.3294 201.082 45.3275H219.48C220.908 45.3294 222.276 46.0231 223.286 47.2564C224.295 48.4897 224.863 50.1618 224.865 51.9059V62.2052C224.961 62.2793 225.041 62.3823 225.097 62.5045C225.152 62.6268 225.181 62.7642 225.181 62.9039V69.6822C225.181 69.822 225.152 69.9594 225.097 70.0817C225.041 70.204 224.961 70.307 224.865 70.3812V110.118C224.863 111.862 224.295 113.534 223.286 114.767C222.276 116 220.908 116.694 219.48 116.696ZM201.082 46.2019C199.844 46.2036 198.657 46.8051 197.782 47.8744C196.907 48.9438 196.415 50.3936 196.413 51.9059V57.3746L196.069 57.3908C196.051 57.3916 196.034 57.4008 196.021 57.4164C196.009 57.432 196.002 57.4529 196.001 57.4747V61.0295C196.002 61.0514 196.009 61.0722 196.022 61.0878C196.034 61.1034 196.051 61.1126 196.069 61.1134L196.413 61.1294V64.2115L196.141 64.2935C196.126 64.298 196.112 64.3084 196.103 64.3231C196.093 64.3379 196.087 64.3561 196.087 64.3751V67.9301C196.087 67.949 196.093 67.9673 196.103 67.9821C196.112 67.9968 196.126 68.0072 196.141 68.0117L196.413 68.0936V70.2757L196.141 70.3577C196.126 70.3621 196.112 70.3725 196.103 70.3873C196.093 70.402 196.087 70.4203 196.087 70.4392V73.994C196.087 74.013 196.093 74.0313 196.103 74.0461C196.112 74.0609 196.126 74.0713 196.141 74.0758L196.413 74.1578V110.118C196.415 111.63 196.907 113.08 197.782 114.149C198.657 115.218 199.844 115.82 201.082 115.822H219.48C220.718 115.82 221.905 115.218 222.78 114.149C223.655 113.08 224.147 111.63 224.149 110.118V69.6325H224.466V62.9539H224.149V51.9059C224.147 50.3936 223.655 48.9438 222.78 47.8745C221.905 46.8051 220.718 46.2036 219.48 46.2019L201.082 46.2019Z" fill="#3F3D56"/>
<path d="M212.415 48.483C212.652 48.483 212.843 48.249 212.843 47.9603C212.843 47.6716 212.652 47.4375 212.415 47.4375C212.179 47.4375 211.988 47.6716 211.988 47.9603C211.988 48.249 212.179 48.483 212.415 48.483Z" fill="#3F3D56"/>
<path d="M119.342 149.227H71.4676C70.7877 149.225 70.1362 148.894 69.6554 148.306C69.1747 147.719 68.9038 146.923 68.9019 146.092V117.59C68.9037 116.759 69.1745 115.963 69.6552 115.376C70.1359 114.788 70.7874 114.457 71.4673 114.455H119.342C120.022 114.457 120.673 114.788 121.154 115.376C121.635 115.963 121.906 116.759 121.908 117.59V146.092C121.906 146.923 121.635 147.719 121.154 148.306C120.674 148.893 120.022 149.224 119.342 149.227Z" fill="white"/>
<path d="M119.342 149.227H71.4676C70.7877 149.225 70.1362 148.894 69.6554 148.306C69.1747 147.719 68.9038 146.923 68.9019 146.092V117.59C68.9037 116.759 69.1745 115.963 69.6552 115.376C70.1359 114.788 70.7874 114.457 71.4673 114.455H119.342C120.022 114.457 120.673 114.788 121.154 115.376C121.635 115.963 121.906 116.759 121.908 117.59V146.092C121.906 146.923 121.635 147.719 121.154 148.306C120.674 148.893 120.022 149.224 119.342 149.227ZM71.4676 115.33C70.9773 115.331 70.5076 115.57 70.1609 115.994C69.8143 116.417 69.619 116.991 69.6176 117.591V146.092C69.619 146.691 69.8144 147.265 70.1611 147.688C70.5079 148.112 70.9777 148.351 71.468 148.352H119.342C119.832 148.351 120.302 148.112 120.648 147.688C120.995 147.265 121.191 146.691 121.192 146.091V117.59C121.19 116.991 120.995 116.417 120.648 115.994C120.302 115.57 119.832 115.331 119.342 115.33L71.4676 115.33Z" fill="#3F3D56"/>
<path d="M97.9708 145.015C88.5288 145.015 78.6835 144.904 75.0101 144.833C74.5268 144.821 74.0665 144.578 73.7276 144.157C73.3886 143.736 73.1978 143.17 73.196 142.579V118.986C73.1962 118.774 73.2649 118.571 73.3872 118.422C73.5094 118.272 73.6752 118.187 73.8483 118.187H116.96C117.133 118.187 117.299 118.271 117.421 118.42C117.544 118.569 117.613 118.772 117.613 118.983V134.991C117.605 137.604 116.759 140.109 115.257 141.969C113.755 143.829 111.716 144.895 109.577 144.939C106.154 144.993 102.1 145.015 97.9708 145.015Z" fill="#36D2D2"/>
<path d="M114.401 133.52H75.4462C75.12 133.519 74.802 133.396 74.5354 133.166C74.2688 132.936 74.0665 132.612 73.9561 132.237L69.547 117.124C69.462 116.832 69.4356 116.52 69.4698 116.213C69.504 115.907 69.598 115.615 69.7437 115.362C69.8895 115.109 70.0828 114.902 70.3075 114.759C70.5321 114.617 70.7816 114.542 71.0348 114.541L119.727 114.458C119.959 114.458 120.187 114.52 120.397 114.639C120.607 114.759 120.793 114.933 120.942 115.149C121.09 115.366 121.198 115.62 121.258 115.893C121.318 116.166 121.328 116.452 121.287 116.731L121.325 116.75L121.185 117.149L121.184 117.153L115.854 132.349C115.732 132.697 115.53 132.993 115.271 133.202C115.013 133.41 114.71 133.521 114.401 133.52ZM119.729 115.333L71.0362 115.416C70.8975 115.416 70.7608 115.457 70.6378 115.535C70.5147 115.613 70.4088 115.726 70.3289 115.865C70.249 116.004 70.1976 116.164 70.1788 116.331C70.1601 116.499 70.1746 116.67 70.2211 116.83L74.63 131.943C74.6906 132.148 74.8015 132.326 74.9476 132.452C75.0937 132.578 75.2679 132.645 75.4467 132.646H114.401C114.57 132.646 114.736 132.585 114.877 132.471C115.018 132.357 115.129 132.195 115.196 132.005L120.526 116.808C120.582 116.647 120.605 116.472 120.593 116.297C120.58 116.123 120.532 115.955 120.453 115.809C120.374 115.662 120.266 115.542 120.14 115.459C120.014 115.376 119.873 115.333 119.729 115.333Z" fill="#3F3D56"/>
<path d="M95.3321 136.81C97.0167 136.81 98.3824 135.142 98.3824 133.083C98.3824 131.025 97.0167 129.356 95.3321 129.356C93.6475 129.356 92.2819 131.025 92.2819 133.083C92.2819 135.142 93.6475 136.81 95.3321 136.81Z" fill="white"/>
<path d="M210.557 104.456C212.242 104.456 213.608 102.787 213.608 100.729C213.608 98.6704 212.242 97.0018 210.557 97.0018C208.873 97.0018 207.507 98.6704 207.507 100.729C207.507 102.787 208.873 104.456 210.557 104.456Z" fill="white"/>
<path d="M325.924 154.787L317.776 144.958C317.379 144.476 316.909 144.094 316.391 143.834C315.873 143.575 315.319 143.443 314.759 143.445H314.731C314.167 143.447 313.609 143.586 313.09 143.853C312.57 144.12 312.099 144.511 311.703 145.002C309.882 147.255 308.845 150.283 308.813 153.45C308.78 156.616 309.753 159.675 311.528 161.984C311.614 162.097 311.703 162.207 311.793 162.316C312.288 162.918 312.836 163.453 313.425 163.912C315.036 165.184 316.914 165.856 318.832 165.849H318.893C320.209 165.843 321.511 165.519 322.724 164.895C323.937 164.27 325.037 163.358 325.96 162.211C326.759 161.22 327.205 159.882 327.198 158.49C327.191 157.098 326.733 155.767 325.924 154.787ZM325.452 161.595C323.939 163.457 321.947 164.625 319.812 164.902C317.676 165.179 315.528 164.548 313.729 163.116C313.214 162.7 312.734 162.224 312.294 161.695C310.538 159.577 309.543 156.693 309.528 153.678C309.512 150.663 310.478 147.764 312.212 145.618C312.541 145.208 312.934 144.882 313.368 144.659C313.802 144.436 314.267 144.321 314.738 144.32H314.759C315.225 144.318 315.687 144.428 316.118 144.644C316.549 144.86 316.941 145.178 317.271 145.579L325.42 155.412C326.094 156.227 326.476 157.336 326.482 158.495C326.488 159.654 326.118 160.769 325.452 161.595Z" fill="#3F3D56"/>
<path d="M299.19 122.529L291.042 112.695C290.24 111.723 289.155 111.179 288.025 111.183H288C287.436 111.185 286.877 111.325 286.357 111.593C285.837 111.861 285.365 112.252 284.969 112.744C283.463 114.612 282.486 117.022 282.182 119.618C281.878 122.215 282.263 124.862 283.28 127.172L283.284 127.176C283.703 128.121 284.224 128.993 284.833 129.769C284.901 129.865 284.98 129.961 285.059 130.058C286.93 132.327 289.461 133.597 292.097 133.59H292.162C293.478 133.584 294.781 133.258 295.994 132.633C297.207 132.008 298.306 131.096 299.229 129.948C299.625 129.458 299.939 128.877 300.151 128.239C300.363 127.601 300.471 126.917 300.467 126.228C300.464 125.539 300.349 124.858 300.13 124.223C299.911 123.588 299.591 123.013 299.19 122.529ZM298.717 129.336C297.861 130.401 296.84 131.248 295.714 131.828C294.589 132.408 293.38 132.71 292.158 132.716H292.097C290.262 132.715 288.469 132.051 286.942 130.808C285.415 129.565 284.223 127.798 283.516 125.729C282.808 123.66 282.618 121.382 282.967 119.181C283.317 116.981 284.192 114.955 285.481 113.36C286.148 112.536 287.055 112.069 288.004 112.062C288.953 112.054 289.865 112.507 290.541 113.321L298.689 123.149C299.363 123.966 299.744 125.076 299.75 126.236C299.755 127.395 299.384 128.51 298.717 129.336Z" fill="#3F3D56"/>
<path d="M326.445 157.877L317.462 147.037C316.873 146.328 316.078 145.933 315.251 145.939C314.424 145.945 313.632 146.352 313.051 147.07C312.323 147.969 311.747 149.033 311.356 150.204C310.966 151.374 310.767 152.627 310.773 153.892C310.779 155.156 310.989 156.406 311.39 157.571C311.792 158.736 312.378 159.793 313.114 160.681C313.85 161.569 314.722 162.271 315.68 162.748C316.639 163.224 317.664 163.464 318.699 163.456C319.733 163.447 320.756 163.19 321.709 162.698C322.662 162.206 323.527 161.489 324.253 160.589L326.445 157.877Z" fill="#36D2D2"/>
<path d="M299.712 125.617L290.729 114.777C290.14 114.067 289.345 113.673 288.518 113.679C287.691 113.685 286.9 114.092 286.318 114.81C285.59 115.708 285.014 116.773 284.624 117.944C284.233 119.114 284.035 120.367 284.041 121.631C284.046 122.895 284.256 124.146 284.658 125.311C285.059 126.475 285.645 127.532 286.381 128.421C287.117 129.309 287.989 130.011 288.947 130.487C289.906 130.963 290.932 131.204 291.966 131.196C293.001 131.187 294.024 130.929 294.977 130.438C295.93 129.946 296.794 129.229 297.52 128.329L299.712 125.617Z" fill="#36D2D2"/>
<path d="M316.574 164.629L316.359 165.32C315.35 164.852 314.372 164.383 313.425 163.912C296.649 155.548 288.641 145.758 283.284 127.176L283.28 127.172C283.026 126.297 282.779 125.403 282.539 124.487L283.105 124.264C283.294 125.145 283.57 125.993 283.928 126.792C284.221 127.81 284.523 128.803 284.833 129.769C289.868 145.452 297.293 154.415 311.528 161.984C312.244 162.364 312.977 162.742 313.729 163.116C314.601 163.811 315.563 164.322 316.574 164.629Z" fill="#3F3D56"/>
<path d="M290.892 132.794L290.389 133.417L308.975 155.845L309.478 155.223L290.892 132.794Z" fill="#3F3D56"/>
<path d="M133.543 114.21L133.553 99.8419L126.64 100.597L129.08 109.659L120.224 126.061C119.67 126.213 119.165 126.558 118.769 127.055C118.373 127.552 118.104 128.179 117.995 128.859C117.885 129.54 117.94 130.244 118.153 130.887C118.366 131.53 118.727 132.083 119.193 132.48C119.659 132.876 120.209 133.098 120.776 133.119C121.343 133.14 121.903 132.959 122.388 132.598C122.872 132.237 123.26 131.711 123.504 131.085C123.749 130.459 123.838 129.76 123.763 129.073L133.543 114.21Z" fill="#FFB6B6"/>
</g>
<defs>
<clipPath id="clip0_5_92">
<rect width="320" height="196" fill="white" transform="translate(32.0001 31)"/>
</clipPath>
</defs>
</svg>
